<svg width="175" height="44" viewBox="0 0 175 44" fill="none" xmlns="http://www.w3.org/2000/svg">
<ellipse cx="22" cy="22" rx="22" ry="22" transform="rotate(-90 22 22)" fill="#165DF5"/>
<path d="M62.8056 16.848C64.0216 16.848 65.0722 17.0773 65.9576 17.536C66.8536 17.984 67.5362 18.6293 68.0056 19.472C68.4856 20.3147 68.7256 21.3067 68.7256 22.448C68.7256 23.5893 68.4856 24.5813 68.0056 25.424C67.5362 26.256 66.8536 26.896 65.9576 27.344C65.0722 27.7813 64.0216 28 62.8056 28H59.3336V16.848H62.8056ZM62.8056 26.8C64.2456 26.8 65.3442 26.4213 66.1016 25.664C66.8589 24.896 67.2376 23.824 67.2376 22.448C67.2376 21.0613 66.8536 19.9787 66.0856 19.2C65.3282 18.4213 64.2349 18.032 62.8056 18.032H60.7896V26.8H62.8056ZM71.3981 17.808C71.1207 17.808 70.8861 17.712 70.6941 17.52C70.5021 17.328 70.4061 17.0933 70.4061 16.816C70.4061 16.5387 70.5021 16.304 70.6941 16.112C70.8861 15.92 71.1207 15.824 71.3981 15.824C71.6647 15.824 71.8887 15.92 72.0701 16.112C72.2621 16.304 72.3581 16.5387 72.3581 16.816C72.3581 17.0933 72.2621 17.328 72.0701 17.52C71.8887 17.712 71.6647 17.808 71.3981 17.808ZM72.1021 19.232V28H70.6461V19.232H72.1021ZM78.1996 19.088C78.9569 19.088 79.6182 19.2533 80.1836 19.584C80.7596 19.9147 81.1862 20.3307 81.4636 20.832V19.232H82.9356V28.192C82.9356 28.992 82.7649 29.7013 82.4236 30.32C82.0822 30.9493 81.5916 31.44 80.9516 31.792C80.3222 32.144 79.5862 32.32 78.7436 32.32C77.5916 32.32 76.6316 32.048 75.8636 31.504C75.0956 30.96 74.6422 30.2187 74.5036 29.28H75.9436C76.1036 29.8133 76.4342 30.24 76.9356 30.56C77.4369 30.8907 78.0396 31.056 78.7436 31.056C79.5436 31.056 80.1942 30.8053 80.6956 30.304C81.2076 29.8027 81.4636 29.0987 81.4636 28.192V26.352C81.1756 26.864 80.7489 27.2907 80.1836 27.632C79.6182 27.9733 78.9569 28.144 78.1996 28.144C77.4209 28.144 76.7116 27.952 76.0716 27.568C75.4422 27.184 74.9462 26.6453 74.5836 25.952C74.2209 25.2587 74.0396 24.4693 74.0396 23.584C74.0396 22.688 74.2209 21.904 74.5836 21.232C74.9462 20.5493 75.4422 20.0213 76.0716 19.648C76.7116 19.2747 77.4209 19.088 78.1996 19.088ZM81.4636 23.6C81.4636 22.9387 81.3302 22.3627 81.0636 21.872C80.7969 21.3813 80.4342 21.008 79.9756 20.752C79.5276 20.4853 79.0316 20.352 78.4876 20.352C77.9436 20.352 77.4476 20.48 76.9996 20.736C76.5516 20.992 76.1942 21.3653 75.9276 21.856C75.6609 22.3467 75.5276 22.9227 75.5276 23.584C75.5276 24.256 75.6609 24.8427 75.9276 25.344C76.1942 25.8347 76.5516 26.2133 76.9996 26.48C77.4476 26.736 77.9436 26.864 78.4876 26.864C79.0316 26.864 79.5276 26.736 79.9756 26.48C80.4342 26.2133 80.7969 25.8347 81.0636 25.344C81.3302 24.8427 81.4636 24.2613 81.4636 23.6ZM86.1481 17.808C85.8707 17.808 85.6361 17.712 85.4441 17.52C85.2521 17.328 85.1561 17.0933 85.1561 16.816C85.1561 16.5387 85.2521 16.304 85.4441 16.112C85.6361 15.92 85.8707 15.824 86.1481 15.824C86.4147 15.824 86.6387 15.92 86.8201 16.112C87.0121 16.304 87.1081 16.5387 87.1081 16.816C87.1081 17.0933 87.0121 17.328 86.8201 17.52C86.6387 17.712 86.4147 17.808 86.1481 17.808ZM86.8521 19.232V28H85.3961V19.232H86.8521ZM91.1096 20.432V25.6C91.1096 26.0267 91.2002 26.3307 91.3816 26.512C91.5629 26.6827 91.8776 26.768 92.3256 26.768H93.3976V28H92.0856C91.2749 28 90.6669 27.8133 90.2616 27.44C89.8562 27.0667 89.6536 26.4533 89.6536 25.6V20.432H88.5176V19.232H89.6536V17.024H91.1096V19.232H93.3976V20.432H91.1096ZM94.6177 23.584C94.6177 22.688 94.799 21.904 95.1617 21.232C95.5244 20.5493 96.0204 20.0213 96.6497 19.648C97.2897 19.2747 97.999 19.088 98.7777 19.088C99.5457 19.088 100.212 19.2533 100.778 19.584C101.343 19.9147 101.764 20.3307 102.042 20.832V19.232H103.514V28H102.042V26.368C101.754 26.88 101.322 27.3067 100.746 27.648C100.18 27.9787 99.519 28.144 98.7617 28.144C97.983 28.144 97.279 27.952 96.6497 27.568C96.0204 27.184 95.5244 26.6453 95.1617 25.952C94.799 25.2587 94.6177 24.4693 94.6177 23.584ZM102.042 23.6C102.042 22.9387 101.908 22.3627 101.642 21.872C101.375 21.3813 101.012 21.008 100.554 20.752C100.106 20.4853 99.6097 20.352 99.0657 20.352C98.5217 20.352 98.0257 20.48 97.5777 20.736C97.1297 20.992 96.7724 21.3653 96.5057 21.856C96.239 22.3467 96.1057 22.9227 96.1057 23.584C96.1057 24.256 96.239 24.8427 96.5057 25.344C96.7724 25.8347 97.1297 26.2133 97.5777 26.48C98.0257 26.736 98.5217 26.864 99.0657 26.864C99.6097 26.864 100.106 26.736 100.554 26.48C101.012 26.2133 101.375 25.8347 101.642 25.344C101.908 24.8427 102.042 24.2613 102.042 23.6ZM107.43 16.16V28H105.974V16.16H107.43Z" fill="black"/>
<path d="M120.788 25.872H116.34L115.604 28H113.252L117.268 16.816H119.876L123.892 28H121.524L120.788 25.872ZM120.18 24.08L118.564 19.408L116.948 24.08H120.18ZM128.865 18.992C129.526 18.992 130.108 19.1253 130.609 19.392C131.11 19.648 131.505 19.984 131.793 20.4V19.136H134.049V28.064C134.049 28.8853 133.884 29.616 133.553 30.256C133.222 30.9067 132.726 31.4187 132.065 31.792C131.404 32.176 130.604 32.368 129.665 32.368C128.406 32.368 127.372 32.0747 126.561 31.488C125.761 30.9013 125.308 30.1013 125.201 29.088H127.425C127.542 29.4933 127.793 29.8133 128.177 30.048C128.572 30.2933 129.046 30.416 129.601 30.416C130.252 30.416 130.78 30.2187 131.185 29.824C131.59 29.44 131.793 28.8533 131.793 28.064V26.688C131.505 27.104 131.105 27.4507 130.593 27.728C130.092 28.0053 129.516 28.144 128.865 28.144C128.118 28.144 127.436 27.952 126.817 27.568C126.198 27.184 125.708 26.6453 125.345 25.952C124.993 25.248 124.817 24.4427 124.817 23.536C124.817 22.64 124.993 21.8453 125.345 21.152C125.708 20.4587 126.193 19.9253 126.801 19.552C127.42 19.1787 128.108 18.992 128.865 18.992ZM131.793 23.568C131.793 23.024 131.686 22.56 131.473 22.176C131.26 21.7813 130.972 21.4827 130.609 21.28C130.246 21.0667 129.857 20.96 129.441 20.96C129.025 20.96 128.641 21.0613 128.289 21.264C127.937 21.4667 127.649 21.7653 127.425 22.16C127.212 22.544 127.105 23.0027 127.105 23.536C127.105 24.0693 127.212 24.5387 127.425 24.944C127.649 25.3387 127.937 25.6427 128.289 25.856C128.652 26.0693 129.036 26.176 129.441 26.176C129.857 26.176 130.246 26.0747 130.609 25.872C130.972 25.6587 131.26 25.36 131.473 24.976C131.686 24.5813 131.793 24.112 131.793 23.568ZM144.477 23.376C144.477 23.696 144.455 23.984 144.413 24.24H137.933C137.986 24.88 138.21 25.3813 138.605 25.744C138.999 26.1067 139.485 26.288 140.061 26.288C140.893 26.288 141.485 25.9307 141.837 25.216H144.253C143.997 26.0693 143.506 26.7733 142.781 27.328C142.055 27.872 141.165 28.144 140.109 28.144C139.255 28.144 138.487 27.9573 137.805 27.584C137.133 27.2 136.605 26.6613 136.221 25.968C135.847 25.2747 135.661 24.4747 135.661 23.568C135.661 22.6507 135.847 21.8453 136.221 21.152C136.594 20.4587 137.117 19.9253 137.789 19.552C138.461 19.1787 139.234 18.992 140.109 18.992C140.951 18.992 141.703 19.1733 142.365 19.536C143.037 19.8987 143.554 20.416 143.917 21.088C144.29 21.7493 144.477 22.512 144.477 23.376ZM142.157 22.736C142.146 22.16 141.938 21.7013 141.533 21.36C141.127 21.008 140.631 20.832 140.045 20.832C139.49 20.832 139.021 21.0027 138.637 21.344C138.263 21.6747 138.034 22.1387 137.949 22.736H142.157ZM151.024 19.008C152.08 19.008 152.933 19.344 153.584 20.016C154.234 20.6773 154.56 21.6053 154.56 22.8V28H152.32V23.104C152.32 22.4 152.144 21.8613 151.792 21.488C151.44 21.104 150.96 20.912 150.352 20.912C149.733 20.912 149.242 21.104 148.88 21.488C148.528 21.8613 148.352 22.4 148.352 23.104V28H146.112V19.136H148.352V20.24C148.65 19.856 149.029 19.5573 149.488 19.344C149.957 19.12 150.469 19.008 151.024 19.008ZM156.114 23.568C156.114 22.6507 156.301 21.8507 156.674 21.168C157.047 20.4747 157.565 19.9413 158.226 19.568C158.887 19.184 159.645 18.992 160.498 18.992C161.597 18.992 162.503 19.2693 163.218 19.824C163.943 20.368 164.429 21.136 164.674 22.128H162.258C162.13 21.744 161.911 21.4453 161.602 21.232C161.303 21.008 160.93 20.896 160.482 20.896C159.842 20.896 159.335 21.1307 158.962 21.6C158.589 22.0587 158.402 22.7147 158.402 23.568C158.402 24.4107 158.589 25.0667 158.962 25.536C159.335 25.9947 159.842 26.224 160.482 26.224C161.389 26.224 161.981 25.8187 162.258 25.008H164.674C164.429 25.968 163.943 26.7307 163.218 27.296C162.493 27.8613 161.586 28.144 160.498 28.144C159.645 28.144 158.887 27.9573 158.226 27.584C157.565 27.2 157.047 26.6667 156.674 25.984C156.301 25.2907 156.114 24.4853 156.114 23.568ZM174.795 19.136L169.307 32.192H166.923L168.843 27.776L165.291 19.136H167.803L170.091 25.328L172.411 19.136H174.795Z" fill="#165DF5"/>
</svg>
